<svg width="80" height="70" viewBox="0 0 80 70" fill="none" xmlns="http://www.w3.org/2000/svg">
<path d="M5.50241 57.3507C9.4297 63.8961 15.2957 64.7812 19.2478 62.8052C23.1751 60.8416 15.556 57.5866 14.6652 54.0779C13.2757 48.6048 15.9743 39.6779 15.9743 39.6779C15.9743 39.6779 26.317 54.0779 22.3024 64.1143C20.557 68.4779 32.7678 71.8816 38.0115 67.387C41.0661 64.7688 39.1016 58.4416 39.1016 58.4416H48.7024C48.7024 58.4416 47.9519 66.3117 51.3206 68.0416C55.3569 70.1143 60.4842 69.8416 64.0842 68.0416C67.6842 66.2416 65.8297 58.4416 65.8297 58.4416L74.0115 42.5143C74.0115 42.5143 73.2382 55.3871 77.9379 55.3871C82.6377 55.3871 77.9379 19.1689 70.7388 11.7507C63.5397 4.33248 44.557 3.89609 44.557 3.89609C44.557 3.89609 23.8296 -3.74024 10.3025 2.36882C-3.22462 8.47787 -1.89785 45.017 5.50241 57.3507Z" fill="#10B981"/>
<path d="M47.3932 28.7688C53.2843 15.896 44.5568 3.89606 44.5568 3.89606C44.5568 3.89606 49.8316 19.5351 44.5568 27.2415C37.1389 38.0791 18.3752 35.3142 18.3752 39.6779C18.3752 44.0415 42.024 40.5008 47.3932 28.7688Z" fill="#064E3B"/>
<circle cx="15.5387" cy="22.8778" r="3.27273" fill="#064E3B"/>
</svg>
