<svg width="120" height="120" viewBox="0 0 120 120" fill="none" xmlns="http://www.w3.org/2000/svg">
<path fill-rule="evenodd" clip-rule="evenodd" d="M60 120C93.1371 120 120 93.1371 120 60C120 26.8629 93.1371 0 60 0C26.8629 0 0 26.8629 0 60C0 93.1371 26.8629 120 60 120ZM59.9999 115.636C90.727 115.636 115.636 90.7271 115.636 60C115.636 29.2729 90.727 4.36365 59.9999 4.36365C29.2728 4.36365 4.36353 29.2729 4.36353 60C4.36353 90.7271 29.2728 115.636 59.9999 115.636Z" fill="#047857"/>
<path d="M25.4182 84.6546C29.3455 91.2001 35.2115 92.0851 39.1636 90.1092C43.0909 88.1456 35.4718 84.8906 34.581 81.3819C33.1915 75.9088 35.8901 66.9819 35.8901 66.9819C35.8901 66.9819 46.2328 81.3819 42.2182 91.4182C40.4728 95.7819 52.6836 99.1856 57.9273 94.691C60.9819 92.0728 59.0174 85.7456 59.0174 85.7456H68.6182C68.6182 85.7456 67.8677 93.6157 71.2364 95.3455C75.2727 97.4182 80.4 97.1455 84 95.3455C87.6 93.5455 85.7455 85.7456 85.7455 85.7456L93.9273 69.8182C93.9273 69.8182 93.154 82.691 97.8537 82.691C102.554 82.691 97.8537 46.4728 90.6546 39.0546C83.4555 31.6364 64.4728 31.2 64.4728 31.2C64.4728 31.2 43.7454 23.5637 30.2183 29.6728C16.6912 35.7818 18.018 72.3209 25.4182 84.6546Z" fill="#10B981"/>
<path d="M67.3089 56.0727C73.2001 43.1999 64.4726 31.2 64.4726 31.2C64.4726 31.2 69.7473 46.839 64.4726 54.5454C57.0546 65.383 38.291 62.6181 38.291 66.9817C38.291 71.3454 61.9398 67.8047 67.3089 56.0727Z" fill="#064E3B"/>
<circle cx="35.4545" cy="50.1818" r="3.27273" fill="#064E3B"/>
</svg>
