<svg width="1100" height="1100" viewBox="0 0 1100 1100" fill="none" xmlns="http://www.w3.org/2000/svg">
<circle cx="550" cy="550" r="550" fill="#065F46"/>
<path d="M1060 550C1060 831.665 831.665 1060 550 1060C268.335 1060 40 831.665 40 550C40 268.335 268.335 40 550 40C831.665 40 1060 268.335 1060 550Z" fill="#F9FAFB"/>
<path d="M233 776C269 836 322.772 844.113 359 826C395 808.001 325.158 778.163 316.993 746C304.255 695.83 328.993 614 328.993 614C328.993 614 423.8 746 387 838C371 878 482.933 909.2 531.001 868C559.001 844 540.993 786.001 540.993 786.001H629C629 786.001 622.12 858.143 653 874C690 893 737 890.5 770 874C803 857.5 786 786.001 786 786.001L861 640C861 640 853.911 758.001 896.993 758.001C940.074 758.001 896.993 426 831.001 358C765.009 290 591.001 286 591.001 286C591.001 286 400.999 216 277.001 272C153.003 328 165.165 662.941 233 776Z" fill="#10B981"/>
<path d="M616.998 514C671 396 590.998 286 590.998 286C590.998 286 639.35 429.358 590.998 500C523 599.345 351 574 351 614C351 654 567.78 621.544 616.998 514Z" fill="#065F46"/>
<circle cx="325" cy="460" r="30" fill="#065F46"/>
</svg>
